<?xml version="1.0" encoding="UTF-8"?>
<svg width="788px" height="93px" viewBox="0 0 788 93" version="1.1" xmlns="http://www.w3.org/2000/svg" xmlns:xlink="http://www.w3.org/1999/xlink">
    <!-- Generator: Sketch 52.5 (67469) - http://www.bohemiancoding.com/sketch -->
    <title>Group 2 Copy</title>
    <desc>Created with Sketch.</desc>
    <g id="Page-1" stroke="none" stroke-width="1" fill="none" fill-rule="evenodd">
        <g id="Artboard" transform="translate(-173.000000, -3029.000000)" fill-rule="nonzero" stroke-width="8">
            <g id="Group-2-Copy" transform="translate(176.000000, 3033.000000)">
                <path d="M473.861955,4 L663.814815,4" id="Line-10-Copy-25" stroke="#C7152E" stroke-linecap="round"></path>
                <path d="M473.861955,42 L663.814815,42" id="Line-10-Copy-26" stroke="#C7152E" stroke-linecap="round"></path>
                <path d="M473,80 L663.814815,80" id="Line-2-Copy-21" stroke="#C7152E" stroke-linecap="round"></path>
                <circle id="Oval-Copy-42" stroke="#121214" cx="274.5" cy="42.5" r="42.5"></circle>
                <circle id="Oval-Copy-43" stroke="#C7152E" cx="394.363637" cy="42.5" r="42.5"></circle>
                <path d="M472.363637,4 L552.5,4" id="Line-10-Copy-27" stroke="#121214" stroke-linecap="round"></path>
                <path d="M700.363637,4 L780.5,4" id="Line-10-Copy-28" stroke="#121214" stroke-linecap="round"></path>
                <path d="M780.5,4 L740.25,41.5" id="Line-Copy-18" stroke="#121214" stroke-linecap="round" stroke-linejoin="bevel"></path>
                <path d="M740,42 L780.5,80" id="Line-2-Copy-23" stroke="#121214" stroke-linecap="round" stroke-linejoin="bevel"></path>
                <path d="M700.363637,4 L700.363637,80" id="Line-11-Copy-10" stroke="#121214" stroke-linecap="round" stroke-linejoin="bevel"></path>
                <path d="M552.5,4 L472.363637,79.5" id="Line-Copy-17" stroke="#121214" stroke-linecap="round" stroke-linejoin="bevel"></path>
                <path d="M472,80 L552.5,80" id="Line-2-Copy-22" stroke="#121214" stroke-linecap="round" stroke-linejoin="bevel"></path>
                <path d="M116.363637,4 L196.5,4" id="Line-10-Copy-29" stroke="#121214" stroke-linecap="round"></path>
                <path d="M196.5,4 L156.25,41.5" id="Line-Copy-19" stroke="#121214" stroke-linecap="round" stroke-linejoin="bevel"></path>
                <path d="M156,42 L196.5,80" id="Line-2-Copy-24" stroke="#121214" stroke-linecap="round" stroke-linejoin="bevel"></path>
                <path d="M116.363637,4 L116.363637,80" id="Line-11-Copy-11" stroke="#121214" stroke-linecap="round" stroke-linejoin="bevel"></path>
                <path d="M1.36363717,4 L81.5,4" id="Line-10-Copy-30" stroke="#121214" stroke-linecap="round"></path>
                <path d="M1.36363717,80 L81.5,80" id="Line-10-Copy-31" stroke="#121214" stroke-linecap="round"></path>
                <path d="M1.36363717,4 L1.36363717,80" id="Line-11-Copy-12" stroke="#121214" stroke-linecap="round" stroke-linejoin="bevel"></path>
            </g>
        </g>
    </g>
</svg>